Brought to you by http://bitbitz.net

Come and join us at the home of BBnRG, where you will get exclusive releases just for bitbitz members.

So come and join us while you can.



Another Fine Release Brought to you from - http://bitbitz.net 


===================================================================================
                Pirates of the Caribbean On Stranger Tides (2011) TS x264-BBnRG
===================================================================================
                                                                                               
 ___     _                    ___       __    
| _ \___| |___ __ _ ___ ___  |_ _|_ _  / _|___
|   / -_) / -_) _` (_-</ -_)  | || ' \|  _/ _ \
|_|_\___|_\___\__,_/__/\___| |___|_||_|_| \___/
===================================================================================
 
Format                           : MPEG-4
Format profile                   : Base Media / Version 2
Codec ID                         : mp42
File size                        : 403 MiB
Duration                         : 2h 7mn
Overall bit rate                 : 443 Kbps

Video
ID                               : 1
Format                           : AVC
Format/Info                      : Advanced Video Codec
Format profile                   : Main@L2.1
Format settings, CABAC           : Yes
Format settings, ReFrames        : 4 frames
Codec ID                         : avc1
Codec ID/Info                    : Advanced Video Coding
Duration                         : 2h 7mn
Bit rate mode                    : Variable
Bit rate                         : 276 Kbps
Width                            : 720 pixels
Height                           : 272 pixels
Display aspect ratio             : 2.647
Frame rate mode                  : Variable
Frame rate                       : 23.976 fps
Minimum frame rate               : 23.974 fps
Maximum frame rate               : 23.981 fps
Color space                      : YUV
Chroma subsampling               : 4:2:0
Bit depth                        : 8 bits
Scan type                        : Progressive
Bits/(Pixel*Frame)               : 0.059
Stream size                      : 253 MiB (63%)
Writing library                  : x264 core 112

Audio
ID                               : 2
Format                           : AAC
Format/Info                      : Advanced Audio Codec
Format profile                   : LC
Codec ID                         : 40
Duration                         : 2h 7mn
Bit rate mode                    : Variable
Bit rate                         : 160 Kbps
Maximum bit rate                 : 179 Kbps
Channel(s)                       : 2 channels
Channel positions                : Front: L R
Sampling rate                    : 48.0 KHz
Compression mode                 : Lossy
Stream size                      : 146 MiB (36%)
 

 ___     _                    ___                 _      _   _          
| _ \___| |___ __ _ ___ ___  |   \ ___ ___ __ _ _(_)_ __| |_(_)___ _ _  
|   / -_) / -_) _` (_-</ -_) | |) / -_|_-</ _| '_| | '_ \  _| / _ \ ' \
|_|_\___|_\___\__,_/__/\___| |___/\___/__/\__|_| |_| .__/\__|_\___/_||_|
                                                   |_|                  
===================================================================================
 
Encoder: RANDom

IMDB: http://www.imdb.com/title/tt1298650/

Plot:  Jack Sparrow and Barbossa embark on a quest to find the elusive fountain of youth, only
to discover that Blackbeard and his daughter are after it too. 
 
 
 
  ___                     _  _     _          
 / __|_ _ ___ _  _ _ __  | \| |___| |_ ___ ___
| (_ | '_/ _ \ || | '_ \ | .` / _ \  _/ -_|_-<
 \___|_| \___/\_,_| .__/ |_|\_\___/\__\___/__/
                  |_|                        
===================================================================================
 
Source Used: TS AC3 - HIVE-CM8 (THANKS)
 
Release Notes:
Here we are with another good release, i took the source from HIVE-CM8 (Thanks) - I ran it through
some filters, just to touched it up. I then did some magic and shrank the file size. The quality
was preserved whilst shrinking the file and the quality is good considering the file size. Enjoy.


If you have anything you can offer that could be of use please visit our home: BitBitz.net


RANDom: Presenting Another Great Quality Release At A Small File Size.


For more great releases like this and exclusive releases please visit: BitBitz.net
 
 
 
 ___     _                     ___            _ _ _        
| _ \___| |___ __ _ ___ ___   / _ \ _  _ __ _| (_) |_ _  _
|   / -_) / -_) _` (_-</ -_) | (_) | || / _` | | |  _| || |
|_|_\___|_\___\__,_/__/\___|  \__\_\\_,_\__,_|_|_|\__|\_, |
                                                      |__/
===================================================================================
 
Screenshots:
 
http://img339.imageshack.us/i/screen2011052216h20m31s.jpg 
http://img838.imageshack.us/i/screen2011052216h19m33s.jpg 
http://img269.imageshack.us/i/screen2011052216h20m26s.jpg 
http://img31.imageshack.us/i/screen2011052216h20m21s.jpg 
http://img844.imageshack.us/i/screen2011052216h20m15s.jpg 
http://img151.imageshack.us/i/screen2011052216h20m10s.jpg 
http://img821.imageshack.us/i/screen2011052216h20m02s.jpg 
http://img508.imageshack.us/i/screen2011052216h19m54s.jpg 
http://img29.imageshack.us/i/screen2011052216h19m38s.jpg 
http://img194.imageshack.us/i/screen2011052215h27m08s.jpg





  ___             _      
 / __|_ _ ___ ___| |_ ___
| (_ | '_/ -_) -_)  _|_ /
 \___|_| \___\___|\__/__|
===================================================================================
 
NPW, HIVE-CM8, *THC*, SANTI, IMAGiNE, NiCkkkDoN, Hive-CM8, & to all other p2p team out there....
                         
 
 